# xmcd
#
# Track frame offsets: 
#        150
#        12700
#        24615
#        42911
#        59271
#        71553
#        84232
#        97225
#        105578
#
# Disc length: 1550 seconds
#
# Revision: 1
# Processed by: cddbd v1.5.2PL0 Copyright (c) Steve Scherf et al.
# Submitted via: ExactAudioCopyFreeDBPlugin 1.0
#
DISCID=74060c09
DTITLE=Marsimoto - Green Juice EP
DYEAR=2011
DGENRE=Hip-Hop
TTITLE0=Ich bin dein Vater
TTITLE1=Ein trauriges Paar Ski
TTITLE2=Eine kleine Bühne
TTITLE3=Tennis II Society
TTITLE4=Morgens Aronal and abends Airmax feat. Harris
TTITLE5=Mir ist kalt
TTITLE6=Designerkids feat. Chefket
TTITLE7=Der Döner and das Gras (Remix 2013)
TTITLE8=Komm wir fliegen um die Häuser (Marsimoto Excl. Edit)
EXTD=YEAR: 2011
EXTT0=
EXTT1=
EXTT2=
EXTT3=
EXTT4=
EXTT5=
EXTT6=
EXTT7=
EXTT8=
PLAYORDER=
